<svg width="24" height="25" viewBox="0 0 24 25" fill="none" xmlns="http://www.w3.org/2000/svg">
<g id="vuesax/outline/add-square">
<g id="add-square">
<path id="Vector" d="M16 12.75H8C7.86614 12.75 7.75 12.6339 7.75 12.5C7.75 12.3661 7.86614 12.25 8 12.25H16C16.1339 12.25 16.25 12.3661 16.25 12.5C16.25 12.6339 16.1339 12.75 16 12.75Z" fill="#AEAEAE" stroke="#AEAEAE"/>
<path id="Vector_2" d="M12 16.75C11.8661 16.75 11.75 16.6339 11.75 16.5V8.5C11.75 8.36614 11.8661 8.25 12 8.25C12.1339 8.25 12.25 8.36614 12.25 8.5V16.5C12.25 16.6339 12.1339 16.75 12 16.75Z" fill="#AEAEAE" stroke="#AEAEAE"/>
<path id="Vector_3" d="M15 23.25H9C3.57 23.25 1.25 20.93 1.25 15.5V9.5C1.25 4.07 3.57 1.75 9 1.75H15C20.43 1.75 22.75 4.07 22.75 9.5V15.5C22.75 20.93 20.43 23.25 15 23.25ZM9 3.25C4.39 3.25 2.75 4.89 2.75 9.5V15.5C2.75 20.11 4.39 21.75 9 21.75H15C19.61 21.75 21.25 20.11 21.25 15.5V9.5C21.25 4.89 19.61 3.25 15 3.25H9Z" fill="#AEAEAE"/>
</g>
</g>
</svg>
