<svg width="24" height="25" viewBox="0 0 24 25" fill="none" xmlns="http://www.w3.org/2000/svg">
<path d="M21.49 8.30863V8.31V16.69C21.49 18.4106 20.9791 19.7238 20.0964 20.6064C19.2138 21.4891 17.9006 22 16.18 22H7.81C6.08945 22 4.77634 21.4891 3.89377 20.6054C3.01114 19.7217 2.5 18.4059 2.5 16.68V8.31C2.5 6.58944 3.01093 5.27618 3.89355 4.39355C4.77618 3.51093 6.08944 3 7.81 3H16.19C17.9107 3 19.2237 3.51097 20.105 4.39333C20.9861 5.27559 21.4947 6.58838 21.49 8.30863ZM13.25 16.5V13.75H16C16.6861 13.75 17.25 13.1861 17.25 12.5C17.25 11.8139 16.6861 11.25 16 11.25H13.25V8.5C13.25 7.81386 12.6861 7.25 12 7.25C11.3139 7.25 10.75 7.81386 10.75 8.5V11.25H8C7.31386 11.25 6.75 11.8139 6.75 12.5C6.75 13.1861 7.31386 13.75 8 13.75H10.75V16.5C10.75 17.1861 11.3139 17.75 12 17.75C12.6861 17.75 13.25 17.1861 13.25 16.5Z" fill="#3F85EE" stroke="#3F85EE"/>
</svg>
