<svg width="20" height="21" viewBox="0 0 20 21" fill="none" xmlns="http://www.w3.org/2000/svg">
<g id="vuesax/outline/book">
<g id="book">
<path id="Vector" d="M17.0708 15.1431L17.0699 15.143C17.0365 15.1406 17.004 15.1245 16.9797 15.0969C16.9558 15.0697 16.9467 15.0394 16.9487 15.0115L16.4501 14.975L16.9484 15.0165C16.9584 14.8956 16.9584 14.7696 16.9584 14.6747V14.6667V6.33333C16.9584 5.58096 16.9238 4.94576 16.8139 4.42217C16.7028 3.89304 16.5076 3.44177 16.1602 3.09368C15.8128 2.74555 15.3618 2.5493 14.832 2.43748C14.3078 2.32682 13.6714 2.29167 12.9167 2.29167H7.08342C6.32876 2.29167 5.69235 2.32682 5.16817 2.43748C4.63841 2.5493 4.18735 2.74555 3.83992 3.09368C3.49254 3.44176 3.29732 3.89304 3.18626 4.42217C3.07637 4.94576 3.04175 5.58096 3.04175 6.33333V15.5C3.04175 15.5301 3.02946 15.5614 3.00382 15.5871C2.97818 15.6127 2.9469 15.625 2.91675 15.625C2.8866 15.625 2.85532 15.6127 2.82968 15.5871C2.80403 15.5614 2.79175 15.5301 2.79175 15.5V6.33333C2.79175 4.51305 3.07656 3.49938 3.66301 2.91293C4.24946 2.32648 5.26313 2.04167 7.08342 2.04167H12.9167C14.737 2.04167 15.7507 2.32648 16.3372 2.91293C16.9236 3.49938 17.2084 4.51305 17.2084 6.33333V14.6667C17.2084 14.8007 17.2083 14.9095 17.2013 15.0235C17.1987 15.0522 17.1838 15.0845 17.1538 15.1106C17.123 15.1375 17.0918 15.1446 17.0708 15.1431Z" fill="#7F8C8D" stroke="#7F8C8D"/>
<path id="Vector_2" d="M14.1667 19.4583H5.83341C3.88341 19.4583 2.29175 17.8667 2.29175 15.9167V15.375C2.29175 13.7167 3.64175 12.375 5.29175 12.375H17.0834C17.4251 12.375 17.7084 12.6583 17.7084 13V15.9167C17.7084 17.8667 16.1167 19.4583 14.1667 19.4583ZM5.29175 13.625C4.32508 13.625 3.54175 14.4083 3.54175 15.375V15.9167C3.54175 17.1833 4.56675 18.2083 5.83341 18.2083H14.1667C15.4334 18.2083 16.4584 17.1833 16.4584 15.9167V13.625H5.29175Z" fill="#7F8C8D"/>
<path id="Vector_3" d="M13.3334 6.95833H6.66675C6.32508 6.95833 6.04175 6.675 6.04175 6.33333C6.04175 5.99167 6.32508 5.70833 6.66675 5.70833H13.3334C13.6751 5.70833 13.9584 5.99167 13.9584 6.33333C13.9584 6.675 13.6751 6.95833 13.3334 6.95833Z" fill="#7F8C8D"/>
<path id="Vector_4" d="M10.8334 9.875H6.66675C6.32508 9.875 6.04175 9.59167 6.04175 9.25C6.04175 8.90833 6.32508 8.625 6.66675 8.625H10.8334C11.1751 8.625 11.4584 8.90833 11.4584 9.25C11.4584 9.59167 11.1751 9.875 10.8334 9.875Z" fill="#7F8C8D"/>
</g>
</g>
</svg>
