<svg width="20" height="21" viewBox="0 0 20 21" fill="none" xmlns="http://www.w3.org/2000/svg">
<g id="vuesax/outline/building">
<g id="building">
<path id="Vector" d="M2.62327 2.35733L2.62327 2.35733L2.62435 2.35665C3.31198 1.92443 4.25272 1.90169 5.31927 2.43118L5.31926 2.43119L5.32124 2.43215L9.01948 4.24795C9.01974 4.24809 9.02001 4.24822 9.02028 4.24835C9.42635 4.44994 9.81159 4.81809 10.0961 5.27186C10.381 5.72618 10.5416 6.22909 10.5416 6.675V18.8333C10.5416 18.8635 10.5293 18.8948 10.5037 18.9204C10.478 18.9461 10.4467 18.9583 10.4166 18.9583H3.39993C2.35969 18.9583 1.5166 18.1242 1.5166 17.1083V4.74167C1.5166 3.59076 1.93954 2.78467 2.62327 2.35733ZM9.88215 5.39878C9.64553 5.02383 9.30519 4.6692 8.90161 4.47519L5.20363 2.65952L5.20335 2.65937C4.73251 2.42857 4.25632 2.29167 3.79993 2.29167C3.43247 2.29167 3.06995 2.37597 2.75156 2.57603C2.06236 3.00466 1.7666 3.83737 1.7666 4.74167V17.1083C1.7666 18.0073 2.51348 18.7083 3.39993 18.7083H9.7916H10.2916V18.2083V6.675C10.2916 6.23264 10.119 5.77404 9.88215 5.39878Z" fill="#7F8C8D" stroke="#7F8C8D"/>
<path id="Vector_2" d="M15.6751 19.4583H10.4167C10.0751 19.4583 9.79175 19.175 9.79175 18.8333V9.18333C9.79175 8.99167 9.87508 8.81667 10.0251 8.7C10.1751 8.58333 10.3584 8.53333 10.5501 8.575L10.9417 8.65833L16.3917 9.875C18.0501 10.2417 18.8834 11.2167 18.9334 12.875C18.9417 12.875 18.9417 12.9583 18.9417 13.05V16.2C18.9334 18.3333 17.8084 19.4583 15.6751 19.4583ZM11.0417 18.2083H15.6751C17.1417 18.2083 17.6834 17.6667 17.6834 16.2V12.9833C17.6417 11.8417 17.2084 11.3333 16.1167 11.0917L11.0417 9.95833V18.2083Z" fill="#7F8C8D"/>
<path id="Vector_3" d="M7.47492 8.625H4.58325C4.24159 8.625 3.95825 8.34167 3.95825 8C3.95825 7.65833 4.24159 7.375 4.58325 7.375H7.47492C7.81659 7.375 8.09992 7.65833 8.09992 8C8.09992 8.34167 7.82492 8.625 7.47492 8.625Z" fill="#7F8C8D"/>
<path id="Vector_4" d="M7.47492 11.9583H4.58325C4.24159 11.9583 3.95825 11.675 3.95825 11.3333C3.95825 10.9917 4.24159 10.7083 4.58325 10.7083H7.47492C7.81659 10.7083 8.09992 10.9917 8.09992 11.3333C8.09992 11.675 7.82492 11.9583 7.47492 11.9583Z" fill="#7F8C8D"/>
<path id="Vector_5" d="M12.6833 15.2917C11.3083 15.2917 10.1833 14.1667 10.1833 12.7917V9.26667C10.1833 9.075 10.2667 8.9 10.4167 8.775C10.5667 8.65 10.7583 8.60833 10.9417 8.65L14.6917 9.49167C14.975 9.55834 15.1833 9.80834 15.1833 10.1V12.7833C15.1833 14.1667 14.0667 15.2917 12.6833 15.2917ZM11.4333 10.05V12.7917C11.4333 13.4833 11.9917 14.0417 12.6833 14.0417C13.375 14.0417 13.9333 13.4833 13.9333 12.7917V10.6083L11.4333 10.05Z" fill="#7F8C8D"/>
<path id="Vector_6" d="M16.4333 15.2917C15.0583 15.2917 13.9333 14.1667 13.9333 12.7917V10.1083C13.9333 9.91667 14.0167 9.74167 14.1667 9.625C14.3167 9.50833 14.5083 9.45833 14.6917 9.5L16.3834 9.875C18.0417 10.2417 18.875 11.2167 18.925 12.875C18.925 12.8917 18.925 12.9083 18.925 12.925C18.8583 14.25 17.7667 15.2917 16.4333 15.2917ZM15.1833 10.8833V12.7917C15.1833 13.4833 15.7417 14.0417 16.4333 14.0417C17.0917 14.0417 17.6333 13.5333 17.675 12.8833C17.6333 11.8333 17.2 11.3333 16.1167 11.0917L15.1833 10.8833Z" fill="#7F8C8D"/>
</g>
</g>
</svg>
