<svg width="28" height="28" viewBox="0 0 28 28" fill="none" xmlns="http://www.w3.org/2000/svg">
<rect width="28" height="28" rx="14" fill="#3F85EE"/>
<path d="M6.93498 19.2575L6.91998 19.2725C6.71748 18.83 6.58998 18.3275 6.53748 17.7725C6.58998 18.32 6.73248 18.815 6.93498 19.2575Z" fill="white"/>
<path d="M11.75 12.785C12.7358 12.785 13.535 11.9858 13.535 11C13.535 10.0142 12.7358 9.215 11.75 9.215C10.7641 9.215 9.96497 10.0142 9.96497 11C9.96497 11.9858 10.7641 12.785 11.75 12.785Z" fill="white"/>
<path d="M17.1425 6.5H10.8575C8.1275 6.5 6.5 8.1275 6.5 10.8575V17.1425C6.5 17.96 6.6425 18.6725 6.92 19.2725C7.565 20.6975 8.945 21.5 10.8575 21.5H17.1425C19.8725 21.5 21.5 19.8725 21.5 17.1425V15.425V10.8575C21.5 8.1275 19.8725 6.5 17.1425 6.5ZM20.2775 14.375C19.6925 13.8725 18.7475 13.8725 18.1625 14.375L15.0425 17.0525C14.4575 17.555 13.5125 17.555 12.9275 17.0525L12.6725 16.8425C12.14 16.3775 11.2925 16.3325 10.6925 16.7375L7.8875 18.62C7.7225 18.2 7.625 17.7125 7.625 17.1425V10.8575C7.625 8.7425 8.7425 7.625 10.8575 7.625H17.1425C19.2575 7.625 20.375 8.7425 20.375 10.8575V14.4575L20.2775 14.375Z" fill="white"/>
</svg>
