<svg width="52" height="52" viewBox="0 0 52 52" fill="none" xmlns="http://www.w3.org/2000/svg">
<g id="vuesax/outline/gallery">
<g id="gallery">
<path id="Vector" d="M32.4999 49.2917H19.4999C7.73492 49.2917 2.70825 44.265 2.70825 32.5V19.5C2.70825 7.73501 7.73492 2.70834 19.4999 2.70834H32.4999C44.2649 2.70834 49.2916 7.73501 49.2916 19.5V32.5C49.2916 44.265 44.2649 49.2917 32.4999 49.2917ZM19.4999 5.95834C9.51159 5.95834 5.95825 9.51168 5.95825 19.5V32.5C5.95825 42.4883 9.51159 46.0417 19.4999 46.0417H32.4999C42.4883 46.0417 46.0416 42.4883 46.0416 32.5V19.5C46.0416 9.51168 42.4883 5.95834 32.4999 5.95834H19.4999Z" fill="#AEAEAE"/>
<path id="Vector_2" d="M19.5001 23.2917C16.2067 23.2917 13.5417 20.6267 13.5417 17.3333C13.5417 14.04 16.2067 11.375 19.5001 11.375C22.7934 11.375 25.4584 14.04 25.4584 17.3333C25.4584 20.6267 22.7934 23.2917 19.5001 23.2917ZM19.5001 14.625C18.0051 14.625 16.7917 15.8383 16.7917 17.3333C16.7917 18.8283 18.0051 20.0417 19.5001 20.0417C20.9951 20.0417 22.2084 18.8283 22.2084 17.3333C22.2084 15.8383 20.9951 14.625 19.5001 14.625Z" fill="#AEAEAE"/>
<path id="Vector_3" d="M5.78508 42.6833C5.26508 42.6833 4.74508 42.4233 4.44174 41.9683C3.94341 41.2317 4.13841 40.2133 4.89674 39.715L15.5784 32.5433C17.9184 30.9617 21.1467 31.1567 23.2701 32.955L23.9851 33.5833C25.0684 34.515 26.9101 34.515 27.9717 33.5833L36.9851 25.8483C39.2817 23.8767 42.9001 23.8767 45.2184 25.8483L48.7501 28.8817C49.4217 29.4667 49.5084 30.485 48.9234 31.1783C48.3384 31.85 47.3201 31.9367 46.6267 31.3517L43.0951 28.3183C42.0117 27.3866 40.1701 27.3866 39.0867 28.3183L30.0734 36.0533C27.7767 38.025 24.1584 38.025 21.8401 36.0533L21.1251 35.425C20.1284 34.58 18.4817 34.4933 17.3767 35.2517L6.69508 42.4233C6.41341 42.5966 6.08841 42.6833 5.78508 42.6833Z" fill="#AEAEAE"/>
</g>
</g>
</svg>
