<svg width="25" height="25" viewBox="0 0 25 25" fill="none" xmlns="http://www.w3.org/2000/svg">
<path d="M10.5427 3.65016L10.5431 3.64985C11.6273 2.77904 13.3675 2.78414 14.468 3.66073C14.4681 3.66084 14.4682 3.66094 14.4684 3.66105L21.014 8.89756C21.0146 8.89802 21.0152 8.89849 21.0157 8.89895C21.393 9.20711 21.7196 9.68942 21.9304 10.241C22.141 10.7922 22.2196 11.3699 22.1462 11.851L20.8873 19.3845C20.8872 19.385 20.8872 19.3855 20.8871 19.3859C20.6374 20.8188 19.2432 22 17.8 22H7.19996C5.73549 22 4.3725 20.8476 4.12294 19.3965C4.12288 19.3961 4.12282 19.3958 4.12276 19.3955L2.86313 11.8576L2.86293 11.8565C2.78079 11.3718 2.85452 10.793 3.06465 10.2419C3.27476 9.69094 3.60548 9.20909 3.9918 8.90086L3.99267 8.90016L10.5427 3.65016ZM12.5 19.75C13.1861 19.75 13.75 19.1862 13.75 18.5V15.5C13.75 14.8139 13.1861 14.25 12.5 14.25C11.8138 14.25 11.25 14.8139 11.25 15.5V18.5C11.25 19.1862 11.8138 19.75 12.5 19.75Z" fill="#3F85EE" stroke="#3F85EE"/>
</svg>
