<svg width="20" height="21" viewBox="0 0 20 21" fill="none" xmlns="http://www.w3.org/2000/svg">
<g id="vuesax/outline/location">
<g id="location">
<path id="Vector" d="M9.9999 12.3083C8.2249 12.3083 6.7749 10.8667 6.7749 9.08334C6.7749 7.3 8.2249 5.86667 9.9999 5.86667C11.7749 5.86667 13.2249 7.30834 13.2249 9.09167C13.2249 10.875 11.7749 12.3083 9.9999 12.3083ZM9.9999 7.11667C8.91657 7.11667 8.0249 8 8.0249 9.09167C8.0249 10.1833 8.90824 11.0667 9.9999 11.0667C11.0916 11.0667 11.9749 10.1833 11.9749 9.09167C11.9749 8 11.0832 7.11667 9.9999 7.11667Z" fill="#7F8C8D"/>
<path id="Vector_2" d="M9.9999 19.4667C8.76657 19.4667 7.5249 19 6.55824 18.075C4.0999 15.7083 1.38324 11.9333 2.40824 7.44166C3.33324 3.36666 6.89157 1.54166 9.9999 1.54166C9.9999 1.54166 9.9999 1.54166 10.0082 1.54166C13.1166 1.54166 16.6749 3.36666 17.5999 7.45C18.6166 11.9417 15.8999 15.7083 13.4416 18.075C12.4749 19 11.2332 19.4667 9.9999 19.4667ZM9.9999 2.79166C7.5749 2.79166 4.45824 4.08333 3.63324 7.71666C2.73324 11.6417 5.1999 15.025 7.43324 17.1667C8.8749 18.5583 11.1332 18.5583 12.5749 17.1667C14.7999 15.025 17.2666 11.6417 16.3832 7.71666C15.5499 4.08333 12.4249 2.79166 9.9999 2.79166Z" fill="#7F8C8D"/>
</g>
</g>
</svg>
