<svg width="24" height="25" viewBox="0 0 24 25" fill="none" xmlns="http://www.w3.org/2000/svg">
<path d="M18 10.75C17.8661 10.75 17.75 10.6339 17.75 10.5V8.5C17.75 6.90247 17.5304 5.43455 16.6437 4.3732C15.74 3.29134 14.2488 2.75 12 2.75C9.75122 2.75 8.26003 3.29134 7.35627 4.3732C6.46964 5.43455 6.25 6.90247 6.25 8.5V10.5C6.25 10.6339 6.13386 10.75 6 10.75C5.86614 10.75 5.75 10.6339 5.75 10.5V8.5C5.75 7.07122 5.92728 5.51738 6.76532 4.32501C7.57785 3.16893 9.08865 2.25 12 2.25C14.9113 2.25 16.4221 3.16893 17.2347 4.32501C18.0727 5.51738 18.25 7.07122 18.25 8.5V10.5C18.25 10.6339 18.1339 10.75 18 10.75Z" fill="#EE643F" stroke="#7F8C8D"/>
<path d="M12 19.25C10.4861 19.25 9.25 18.0139 9.25 16.5C9.25 14.9861 10.4861 13.75 12 13.75C13.5139 13.75 14.75 14.9861 14.75 16.5C14.75 18.0139 13.5139 19.25 12 19.25ZM12 14.25C10.7639 14.25 9.75 15.2639 9.75 16.5C9.75 17.7361 10.7639 18.75 12 18.75C13.2361 18.75 14.25 17.7361 14.25 16.5C14.25 15.2639 13.2361 14.25 12 14.25Z" fill="#1C1C28" stroke="#7F8C8D"/>
<path d="M17 22.75H7C4.81222 22.75 3.55896 22.4094 2.8248 21.6752C2.09065 20.941 1.75 19.6878 1.75 17.5V15.5C1.75 13.3122 2.09065 12.059 2.8248 11.3248C3.55896 10.5906 4.81222 10.25 7 10.25H17C19.1878 10.25 20.441 10.5906 21.1752 11.3248C21.9094 12.059 22.25 13.3122 22.25 15.5V17.5C22.25 19.6878 21.9094 20.941 21.1752 21.6752C20.441 22.4094 19.1878 22.75 17 22.75ZM7 10.75C6.09618 10.75 5.34091 10.7922 4.72235 10.9228C4.09822 11.0546 3.57727 11.2836 3.17859 11.6831C2.77996 12.0825 2.55213 12.6037 2.42129 13.2271C2.2916 13.845 2.25 14.5989 2.25 15.5V17.5C2.25 18.4011 2.2916 19.155 2.42129 19.7729C2.55213 20.3963 2.77996 20.9175 3.17859 21.3169C3.57727 21.7164 4.09822 21.9454 4.72235 22.0772C5.34091 22.2078 6.09618 22.25 7 22.25H17C17.9038 22.25 18.6591 22.2078 19.2776 22.0772C19.9018 21.9454 20.4227 21.7164 20.8214 21.3169C21.22 20.9175 21.4479 20.3963 21.5787 19.7729C21.7084 19.155 21.75 18.4011 21.75 17.5V15.5C21.75 14.5989 21.7084 13.845 21.5787 13.2271C21.4479 12.6037 21.22 12.0825 20.8214 11.6831C20.4227 11.2836 19.9018 11.0546 19.2776 10.9228C18.6591 10.7922 17.9038 10.75 17 10.75H7Z" fill="#1C1C28" stroke="#7F8C8D"/>
</svg>
