<svg width="24" height="25" viewBox="0 0 24 25" fill="none" xmlns="http://www.w3.org/2000/svg">
<g id="vuesax/outline/more">
<g id="more">
<path id="Vector" d="M5 14.75C3.75614 14.75 2.75 13.7439 2.75 12.5C2.75 11.2561 3.75614 10.25 5 10.25C6.24386 10.25 7.25 11.2561 7.25 12.5C7.25 13.7439 6.24386 14.75 5 14.75ZM5 10.75C4.03386 10.75 3.25 11.5339 3.25 12.5C3.25 13.4661 4.03386 14.25 5 14.25C5.96614 14.25 6.75 13.4661 6.75 12.5C6.75 11.5339 5.96614 10.75 5 10.75Z" fill="#7F8C8D" stroke="#7F8C8D"/>
<path id="Vector_2" d="M19 14.75C17.7561 14.75 16.75 13.7439 16.75 12.5C16.75 11.2561 17.7561 10.25 19 10.25C20.2439 10.25 21.25 11.2561 21.25 12.5C21.25 13.7439 20.2439 14.75 19 14.75ZM19 10.75C18.0339 10.75 17.25 11.5339 17.25 12.5C17.25 13.4661 18.0339 14.25 19 14.25C19.9661 14.25 20.75 13.4661 20.75 12.5C20.75 11.5339 19.9661 10.75 19 10.75Z" fill="#7F8C8D" stroke="#7F8C8D"/>
<path id="Vector_3" d="M12 14.75C10.7561 14.75 9.75 13.7439 9.75 12.5C9.75 11.2561 10.7561 10.25 12 10.25C13.2439 10.25 14.25 11.2561 14.25 12.5C14.25 13.7439 13.2439 14.75 12 14.75ZM12 10.75C11.0339 10.75 10.25 11.5339 10.25 12.5C10.25 13.4661 11.0339 14.25 12 14.25C12.9661 14.25 13.75 13.4661 13.75 12.5C13.75 11.5339 12.9661 10.75 12 10.75Z" fill="#7F8C8D" stroke="#7F8C8D"/>
</g>
</g>
</svg>
