<svg width="20" height="20" viewBox="0 0 20 20" fill="none" xmlns="http://www.w3.org/2000/svg">
<path d="M1 19H19H1ZM2 16H18H2ZM4 8V16V8ZM8 8V16V8ZM12 8V16V8ZM16 8V16V8ZM2 7.5V6.545C2.00006 6.37786 2.04202 6.21341 2.12202 6.06667C2.20203 5.91993 2.31754 5.79558 2.458 5.705L9.458 1.185C9.61957 1.08079 9.80775 1.02538 10 1.02538C10.1923 1.02538 10.3804 1.08079 10.542 1.185L17.542 5.705C17.6825 5.79558 17.798 5.91993 17.878 6.06667C17.958 6.21341 17.9999 6.37786 18 6.545V7.5C18 7.63261 17.9473 7.75978 17.8536 7.85355C17.7598 7.94732 17.6326 8 17.5 8H2.5C2.36739 8 2.24021 7.94732 2.14645 7.85355C2.05268 7.75978 2 7.63261 2 7.5Z" fill="#3F85EE"/>
<path d="M1 19H19M2 16H18M4 8V16M8 8V16M12 8V16M16 8V16M2 7.5V6.545C2.00006 6.37786 2.04202 6.21341 2.12202 6.06667C2.20203 5.91993 2.31754 5.79558 2.458 5.705L9.458 1.185C9.61957 1.08079 9.80775 1.02538 10 1.02538C10.1923 1.02538 10.3804 1.08079 10.542 1.185L17.542 5.705C17.6825 5.79558 17.798 5.91993 17.878 6.06667C17.958 6.21341 17.9999 6.37786 18 6.545V7.5C18 7.63261 17.9473 7.75978 17.8536 7.85355C17.7598 7.94732 17.6326 8 17.5 8H2.5C2.36739 8 2.24021 7.94732 2.14645 7.85355C2.05268 7.75978 2 7.63261 2 7.5Z" stroke="#3F85EE" stroke-width="2" stroke-linecap="round"/>
</svg>
