<svg width="24" height="25" viewBox="0 0 24 25" fill="none" xmlns="http://www.w3.org/2000/svg">
<g id="vuesax/outline/setting-2">
<g id="setting-2">
<path id="Vector" d="M12 15.75C10.2061 15.75 8.75 14.2939 8.75 12.5C8.75 10.7061 10.2061 9.25 12 9.25C13.7939 9.25 15.25 10.7061 15.25 12.5C15.25 14.2939 13.7939 15.75 12 15.75ZM12 9.75C10.4839 9.75 9.25 10.9839 9.25 12.5C9.25 14.0161 10.4839 15.25 12 15.25C13.5161 15.25 14.75 14.0161 14.75 12.5C14.75 10.9839 13.5161 9.75 12 9.75Z" fill="#EE643F" stroke="#AEAEAE"/>
<path id="Vector_2" d="M9.29506 22.1258L9.29505 22.1258L9.28974 22.1272C8.78935 22.2623 8.27942 22.1905 7.84725 21.9312L7.84729 21.9312L7.83943 21.9266L6.11942 20.9366L6.11883 20.9363C5.62587 20.6534 5.26895 20.1938 5.11296 19.6305C4.96627 19.0649 5.04116 18.4912 5.32369 17.9988L5.32465 17.9971C5.48974 17.7068 5.60884 17.4075 5.656 17.1178C5.70286 16.83 5.68369 16.5141 5.52135 16.2371C5.21133 15.7083 4.53815 15.53 3.9 15.53C2.71614 15.53 1.75 14.5638 1.75 13.38V11.62C1.75 10.4361 2.71614 9.46998 3.9 9.46998C4.53815 9.46998 5.21133 9.2917 5.52135 8.76284C5.8349 8.22797 5.64497 7.54839 5.32247 6.99903C5.04025 6.50586 4.96658 5.92239 5.11336 5.36793L5.11381 5.36619C5.25952 4.80763 5.61339 4.34901 6.1158 4.06539L6.1158 4.0654L6.11834 4.06395L7.84834 3.07395L7.84837 3.074L7.85501 3.07007C8.74208 2.5441 9.92719 2.84714 10.4696 3.76447L10.4696 3.76448L10.4713 3.76723L10.5893 3.96392C10.92 4.5341 11.4019 4.97498 12.015 4.97498C12.6294 4.97498 13.1119 4.53234 13.4427 3.9605C13.4427 3.96044 13.4428 3.96039 13.4428 3.96033L13.5513 3.77284C13.5516 3.77247 13.5518 3.77209 13.552 3.77172C14.0945 2.84774 15.277 2.54441 16.1739 3.07939L16.1738 3.07944L16.1806 3.08333L17.9006 4.07333L17.9012 4.07366C18.3941 4.35652 18.7511 4.8162 18.907 5.37945C19.0537 5.94507 18.9788 6.51875 18.6963 7.01114L18.6954 7.01283C18.5303 7.30317 18.4112 7.60244 18.364 7.89214C18.3171 8.17997 18.3363 8.49591 18.4987 8.77284C18.8087 9.3017 19.4819 9.47998 20.12 9.47998C21.3039 9.47998 22.27 10.4461 22.27 11.63V13.39C22.27 14.5738 21.3039 15.54 20.12 15.54C19.4818 15.54 18.8087 15.7183 18.4987 16.2471C18.1851 16.782 18.375 17.4616 18.6975 18.0109C18.9824 18.5086 19.0608 19.09 18.9084 19.6354L18.9084 19.6354L18.9062 19.6438C18.7605 20.2023 18.4066 20.6609 17.9042 20.9446L17.9017 20.946L16.1751 21.9341C15.8657 22.1044 15.5395 22.19 15.21 22.19C15.05 22.19 14.8823 22.1674 14.7042 22.1256C14.2097 21.9879 13.8 21.6781 13.5387 21.2427L13.4207 21.046C13.0899 20.4758 12.6081 20.035 11.995 20.035C11.3806 20.035 10.898 20.4777 10.5672 21.0496L10.4592 21.2361C10.4589 21.2366 10.4586 21.2371 10.4583 21.2376C10.1931 21.6868 9.7813 22.0004 9.29506 22.1258ZM13.8567 20.7895L13.8573 20.7905L13.9659 20.9781C13.9661 20.9785 13.9664 20.979 13.9667 20.9794C14.1561 21.31 14.4704 21.543 14.8387 21.6351C15.1931 21.7236 15.5696 21.6838 15.8933 21.4911L17.6199 20.4931C17.9901 20.2795 18.2775 19.9225 18.3931 19.4888C18.5063 19.0644 18.451 18.6178 18.2331 18.2401L18.2322 18.2386C17.7242 17.3652 17.7069 16.5506 18.0341 15.978C18.3586 15.4102 19.0688 15.02 20.09 15.02C21.0061 15.02 21.74 14.2861 21.74 13.37V11.61C21.74 10.7067 21.009 9.95998 20.09 9.95998C19.0688 9.95998 18.3586 9.5698 18.0341 9.00191C17.7069 8.42934 17.7242 7.61476 18.2322 6.74137L18.2331 6.73984C18.451 6.36217 18.5063 5.91559 18.3931 5.49115C18.2776 5.05813 18.0025 4.71595 17.642 4.49415L17.6353 4.48997L17.6283 4.48601L15.903 3.49868C15.2278 3.09474 14.3551 3.33617 13.9595 4.00562L13.9595 4.00561L13.9573 4.00946L13.8473 4.19946L13.8467 4.2005C13.3372 5.08533 12.6503 5.49998 11.99 5.49998C11.3308 5.49998 10.6449 5.08662 10.1357 4.20461L10.0281 4.00902L10.024 4.00156L10.0196 3.99424C9.6304 3.34031 8.76766 3.10925 8.09931 3.49737C8.0991 3.49749 8.0989 3.49761 8.09869 3.49773L6.37014 4.49689C6.37005 4.49694 6.36995 4.49699 6.36986 4.49705C6.36983 4.49706 6.36981 4.49708 6.36978 4.4971C5.99973 4.71071 5.7125 5.06758 5.59688 5.50115C5.4837 5.92559 5.53902 6.37217 5.7569 6.74984L5.75779 6.75137C6.26579 7.62476 6.28306 8.43934 5.95588 9.01191C5.63137 9.5798 4.9212 9.96998 3.9 9.96998C2.98386 9.96998 2.25 10.7038 2.25 11.62V13.38C2.25 14.2833 2.98103 15.03 3.9 15.03C4.9212 15.03 5.63137 15.4202 5.95588 15.9881C6.28306 16.5606 6.26579 17.3752 5.75779 18.2486L5.75691 18.2501C5.53902 18.6278 5.4837 19.0744 5.59688 19.4988C5.71235 19.9318 5.98753 20.274 6.34795 20.4958L6.35474 20.5L6.36166 20.5039L8.08504 21.4902C8.41615 21.6919 8.80356 21.7351 9.15373 21.6444C9.53454 21.5485 9.836 21.2987 10.0251 20.9932L10.029 20.9869L10.0327 20.9805L10.1422 20.7914C10.1423 20.7912 10.1424 20.7911 10.1424 20.791C10.6537 19.9122 11.3419 19.49 12 19.49C12.6603 19.49 13.3472 19.9046 13.8567 20.7895Z" fill="#AEAEAE" stroke="#AEAEAE"/>
</g>
</g>
</svg>
