<svg width="24" height="25" viewBox="0 0 24 25" fill="none" xmlns="http://www.w3.org/2000/svg">
<g id="vuesax/bold/setting-2">
<g id="setting-2">
<path id="Vector" d="M17.5019 4.71412L17.5017 4.71396L15.7717 3.72396L15.7643 3.71976L15.7644 3.7197C15.222 3.39703 14.5063 3.58276 14.1711 4.14332L14.0638 4.32866C14.0636 4.32896 14.0634 4.32926 14.0633 4.32955C13.56 5.20706 12.8258 5.7575 11.9888 5.7575C11.1522 5.7575 10.4157 5.2076 9.90741 4.33073L9.90729 4.33052L9.79729 4.14052L9.79553 4.13748L9.79554 4.13747C9.48218 3.58736 8.77192 3.3947 8.22565 3.7197L8.21837 3.72403L8.21834 3.72396L6.48834 4.71396L6.48807 4.71412C5.82207 5.09469 5.58942 5.95652 5.97313 6.6302C6.48124 7.50241 6.59087 8.41165 6.17295 9.1351C5.75511 9.85843 4.91145 10.22 3.9 10.22C3.13443 10.22 2.5 10.8478 2.5 11.62V13.38C2.5 14.1456 3.12785 14.78 3.9 14.78C4.91153 14.78 5.75545 15.1417 6.17321 15.8666C6.59079 16.5912 6.48109 17.5026 5.97345 18.3792C5.58991 19.0519 5.8208 19.9046 6.48807 20.2859L6.48834 20.286L8.21834 21.276L8.22568 21.2802L8.22565 21.2803C8.768 21.603 9.48373 21.4172 9.8189 20.8567L9.92622 20.6713C9.92639 20.671 9.92657 20.6707 9.92674 20.6704C10.4301 19.7929 11.1642 19.2425 12.0012 19.2425C12.8378 19.2425 13.5743 19.7924 14.0826 20.6693L14.0827 20.6695L14.1911 20.8567C14.5263 21.4172 15.242 21.603 15.7844 21.2803L15.7916 21.276L15.7917 21.276L17.5217 20.286L17.5219 20.2859C18.1902 19.904 18.4191 19.0414 18.0371 18.3801L17.5019 4.71412ZM17.5019 4.71412C18.1696 5.09564 18.4004 5.9491 18.0159 6.62193M17.5019 4.71412L18.0159 6.62193M18.0159 6.62193C17.5131 7.49928 17.4072 8.41051 17.826 9.13418M18.0159 6.62193L17.826 9.13418M17.826 9.13418C18.245 9.85819 19.0881 10.22 20.1 10.22M17.826 9.13418L20.1 10.22M20.1 10.22C20.8705 10.22 21.5014 10.8533 21.51 11.6226L20.1 10.22ZM8.25 12.5C8.25 14.5661 9.93386 16.25 12 16.25C14.0661 16.25 15.75 14.5661 15.75 12.5C15.75 10.4339 14.0661 8.75 12 8.75C9.93386 8.75 8.25 10.4339 8.25 12.5Z" fill="#EE643F" stroke="#EE643F"/>
</g>
</g>
</svg>
